<svg width="24" height="24" viewBox="0 0 24 24" fill="none" xmlns="http://www.w3.org/2000/svg">
<path d="M5.26806 9.7501C5.26681 8.86096 5.44148 7.98035 5.78202 7.15901C6.12256 6.33766 6.62223 5.5918 7.25226 4.96438C7.88228 4.33697 8.63022 3.84041 9.45297 3.50329C10.2757 3.16617 11.1571 2.99516 12.0462 3.0001C15.7587 3.02823 18.7306 6.1126 18.7306 9.83448V10.5001C18.7306 13.8564 19.4337 15.8064 20.0524 16.8751C20.1182 16.9889 20.1528 17.118 20.1529 17.2494C20.153 17.3809 20.1186 17.51 20.0531 17.624C19.9876 17.7379 19.8933 17.8326 19.7796 17.8986C19.666 17.9647 19.537 17.9996 19.4056 18.0001H4.59306C4.46163 17.9996 4.33263 17.9647 4.21899 17.8986C4.10534 17.8326 4.01104 17.7379 3.94552 17.624C3.88001 17.51 3.84559 17.3809 3.8457 17.2494C3.84582 17.118 3.88047 16.9889 3.94619 16.8751C4.56494 15.8064 5.26806 13.8564 5.26806 10.5001V9.7501Z" stroke="#222222" stroke-width="1.5" stroke-linecap="round" stroke-linejoin="round"/>
<path d="M9 18V18.75C9 19.5456 9.31607 20.3087 9.87868 20.8713C10.4413 21.4339 11.2044 21.75 12 21.75C12.7956 21.75 13.5587 21.4339 14.1213 20.8713C14.6839 20.3087 15 19.5456 15 18.75V18" stroke="#222222" stroke-width="1.5" stroke-linecap="round" stroke-linejoin="round"/>
</svg>
