<svg width="390" height="52" viewBox="0 0 390 52" fill="none" xmlns="http://www.w3.org/2000/svg">
<rect width="390" height="52" rx="8" fill="#FEE500"/>
<g clip-path="url(#clip0_262_11852)">
<path fill-rule="evenodd" clip-rule="evenodd" d="M95 17.6001C90.0292 17.6001 86 20.7131 86 24.5524C86 26.9401 87.5584 29.0451 89.9315 30.2971L88.933 33.9446C88.8448 34.2669 89.2134 34.5238 89.4965 34.337L93.8733 31.4483C94.2427 31.4839 94.6181 31.5047 95 31.5047C99.9705 31.5047 104 28.3919 104 24.5524C104 20.7131 99.9705 17.6001 95 17.6001Z" fill="black"/>
</g>
<path d="M121.199 19.8438C121.182 24.4844 119.758 28.6152 114.01 31.4453L113.096 30.1973C115.943 28.7998 117.64 27.1035 118.58 25.0996L113.43 25.5918L113.184 24.1504L119.09 23.7461C119.327 22.9463 119.468 22.0938 119.529 21.1973H114.01V19.8438H121.199ZM125.277 18.2441V24.5371H127.721V25.9082H125.277V33.9766H123.607V18.2441H125.277ZM136.756 19.8438C136.738 24.4844 135.314 28.6152 129.566 31.4453L128.652 30.1973C131.5 28.7998 133.196 27.1035 134.137 25.0996L128.986 25.5918L128.74 24.1504L134.646 23.7461C134.884 22.9463 135.024 22.0938 135.086 21.1973H129.566V19.8438H136.756ZM140.834 18.2441V24.5371H143.277V25.9082H140.834V33.9766H139.164V18.2441H140.834ZM151.293 19.1934C154.668 19.2109 157.111 20.8633 157.111 23.377C157.111 25.7412 155.063 27.2969 152.119 27.543V30.6367H158.535V32.0254H144.121V30.6367H150.467V27.543C147.54 27.2969 145.492 25.7412 145.492 23.377C145.492 20.8633 147.936 19.2109 151.293 19.1934ZM151.293 20.5645C148.867 20.5469 147.109 21.6719 147.109 23.377C147.109 25.1523 148.867 26.2422 151.293 26.2598C153.736 26.2422 155.494 25.1523 155.494 23.377C155.494 21.6719 153.736 20.5469 151.293 20.5645ZM174.092 30.707V32.1133H159.678V30.707H166.023V27.9473H161.436V22.9375H170.682V20.7227H161.4V19.3516H172.334V24.2734H163.088V26.5762H172.703V27.9473H167.676V30.707H174.092ZM184.691 32.6758C182.055 32.6758 180.174 31.252 180.104 29.1777H182.072C182.143 30.3027 183.25 31.0059 184.674 31.0059C186.203 31.0059 187.328 30.1621 187.328 28.9316C187.328 27.6836 186.273 26.7695 184.463 26.7695H183.373V25.1875H184.463C185.904 25.1875 186.924 24.3789 186.924 23.166C186.924 22.0059 186.062 21.2148 184.709 21.2148C183.426 21.2148 182.301 21.918 182.248 23.0781H180.385C180.438 21.0039 182.354 19.5977 184.727 19.5977C187.223 19.5977 188.805 21.1797 188.787 23.0605C188.805 24.502 187.908 25.5566 186.537 25.8906V25.9785C188.277 26.2246 189.279 27.3848 189.279 29.002C189.279 31.1289 187.328 32.6758 184.691 32.6758ZM205.275 30.6895V32.0605H190.861V30.6895H197.225V27.2617H198.877V30.6895H205.275ZM203.939 20.6348V21.9883H198.895C198.965 24.1943 201.303 26.0225 204.537 26.5059L203.904 27.8066C201.276 27.3936 199.079 26.1455 198.051 24.3086C197.022 26.1455 194.834 27.3936 192.197 27.8066L191.564 26.5059C194.799 26.0225 197.119 24.1943 197.207 21.9883H192.162V20.6348H197.225V18.5254H198.877V20.6348H203.939ZM214.398 19.6328V26.9805H207.033V19.6328H214.398ZM208.668 20.9863V25.6621H212.764V20.9863H208.668ZM218.793 18.2266V22.9375H221.078V24.3438H218.793V29.7754H217.123V18.2266H218.793ZM219.461 32.3066V33.6602H208.809V28.668H210.479V32.3066H219.461ZM235.527 18.2441V33.9941H233.928V18.2441H235.527ZM232.328 18.543V33.2207H230.729V25.627H228.953C228.812 28.7031 227.494 30.6191 225.543 30.6016C223.486 30.6191 222.15 28.457 222.15 25.0469C222.15 21.6367 223.486 19.4922 225.543 19.5098C227.459 19.4922 228.76 21.3115 228.953 24.2734H230.729V18.543H232.328ZM225.543 21.0742C224.4 21.0742 223.697 22.5332 223.697 25.0469C223.697 27.5605 224.4 29.0195 225.543 29.0195C226.703 29.0195 227.424 27.5605 227.424 25.0469C227.424 22.5332 226.703 21.0742 225.543 21.0742ZM247.709 22.252C247.691 25.1348 249.432 28.0176 251.875 29.1074L250.873 30.4258C249.062 29.5645 247.63 27.7979 246.9 25.6445C246.162 27.9473 244.712 29.8545 242.822 30.7773L241.803 29.3711C244.281 28.2637 246.021 25.2578 246.021 22.252V19.5625H247.709V22.252ZM254.969 18.2441V34.0293H253.299V18.2441H254.969ZM262.984 21.0742C262.984 23.0781 264.373 24.9941 266.781 25.8027L265.938 27.1035C264.153 26.4883 262.844 25.2578 262.158 23.7109C261.473 25.416 260.11 26.752 258.256 27.4023L257.359 26.1016C259.82 25.2578 261.297 23.2363 261.314 21.0566V20.6348H257.852V19.2812H266.377V20.6348H262.984V21.0742ZM269.857 18.2441V22.2871H272.143V23.6934H269.857V27.7363H268.188V18.2441H269.857ZM269.857 28.5098V33.9941H268.188V29.8633H259.451V28.5098H269.857ZM285.309 18.2441V24.625H287.84V26.0137H285.309V33.9941H283.656V18.2441H285.309ZM282.285 20.7051V22.0762H272.951V20.7051H276.836V18.4551H278.506V20.7051H282.285ZM277.68 23.2363C279.93 23.2363 281.582 24.748 281.6 26.8926C281.582 29.0547 279.93 30.5488 277.68 30.5664C275.412 30.5488 273.76 29.0547 273.76 26.8926C273.76 24.748 275.412 23.2363 277.68 23.2363ZM277.68 24.6074C276.344 24.6074 275.342 25.5391 275.359 26.8926C275.342 28.2637 276.344 29.1777 277.68 29.1602C279.016 29.1777 280 28.2637 280 26.8926C280 25.5391 279.016 24.6074 277.68 24.6074ZM301.691 18.2441V33.9941H300.004V18.2441H301.691ZM296.998 19.9316C296.998 24.5371 295.029 28.5449 289.633 31.1289L288.754 29.7754C292.946 27.7803 294.985 24.9414 295.311 21.2676H289.51V19.9316H296.998Z" fill="#222222"/>
<defs>
<clipPath id="clip0_262_11852">
<rect width="17.9999" height="18" fill="white" transform="translate(86 17)"/>
</clipPath>
</defs>
</svg>
