<svg width="25" height="24" viewBox="0 0 25 24" fill="none" xmlns="http://www.w3.org/2000/svg">
<path d="M19.5723 7.60352H9.28777C8.09762 7.60352 7.13281 8.56832 7.13281 9.75847V19.0828C7.13281 20.273 8.09762 21.2378 9.28777 21.2378H15.995C16.5423 21.2378 17.0692 21.0295 17.4686 20.6552L21.0459 17.3026C21.4806 16.8952 21.7273 16.326 21.7273 15.7302V9.75847C21.7273 8.56832 20.7625 7.60352 19.5723 7.60352Z" fill="#FFD298" stroke="#FF8F39" stroke-width="1.5" stroke-linecap="round"/>
<path d="M18.0288 5.22316L17.9208 4.62077C17.7109 3.44929 16.5876 2.64964 15.412 2.83471L5.11898 4.45495C3.94331 4.64001 3.16043 5.73971 3.37038 6.9112L4.69857 14.3223" stroke="#FF8F39" stroke-width="1.5" stroke-linecap="round"/>
<path d="M18.019 16.333H20.4926L16.9417 19.9075L16.9415 17.4106C16.9414 16.8155 17.4239 16.333 18.019 16.333Z" fill="#FF8F39" stroke="#FF8F39" stroke-width="1.61621" stroke-linecap="round"/>
<path d="M10.3145 11.8223H17.7007" stroke="#FF8F39" stroke-width="1.5" stroke-linecap="round"/>
<path d="M10.3145 15.0557H14.4294" stroke="#FF8F39" stroke-width="1.5" stroke-linecap="round"/>
</svg>
