<svg width="430" height="932" viewBox="0 0 430 932" fill="none" xmlns="http://www.w3.org/2000/svg">
<rect width="430" height="932" fill="white"/>
<path d="M65.2812 225.562V228.375H42.2188V225.562H52.0625V222.469H55.5V225.562H65.2812ZM66.75 240.781V243.625H55.5V250.812H52.0625V243.625H40.9375V240.781H66.75ZM53.7812 229.656C59.75 229.656 63.3438 231.344 63.3438 234.438C63.3438 237.531 59.75 239.219 53.7812 239.219C47.8125 239.219 44.2188 237.531 44.2188 234.438C44.2188 231.344 47.8125 229.656 53.7812 229.656ZM53.7812 232.25C49.875 232.25 47.8125 233 47.8438 234.438C47.8125 235.875 49.875 236.625 53.7812 236.625C57.6875 236.625 59.75 235.875 59.75 234.438C59.75 233 57.6875 232.25 53.7812 232.25ZM70.6562 235.844C71.6875 234.719 73 234.125 74.4375 234.125C76.9375 234.125 79.0938 235.875 81.5938 235.875C83.0312 235.875 84.2812 235.281 85.2812 234.094V237.5C84.25 238.656 82.9375 239.219 81.5 239.219C79 239.219 76.8125 237.469 74.3438 237.469C72.9062 237.469 71.6562 238.062 70.6562 239.25V235.844ZM103 227.031V229.812H89.1562V227.031H94.4062V223.344H97.8438V227.031H103ZM96.125 231.312C99.7188 231.312 102.281 234.031 102.281 237.875C102.281 241.781 99.7188 244.531 96.125 244.531C92.5625 244.531 89.9375 241.781 89.9688 237.875C89.9375 234.031 92.5625 231.312 96.125 231.312ZM96.125 234.188C94.2812 234.188 93 235.656 93.0312 237.875C93 240.156 94.2812 241.594 96.125 241.562C97.9375 241.594 99.2188 240.156 99.2188 237.875C99.2188 235.656 97.9375 234.188 96.125 234.188ZM113.5 222.531V250.781H110.188V236.969H107.438V249.5H104.188V223.125H107.438V234.156H110.188V222.531H113.5Z" fill="#FF8F39"/>
<path d="M139 222.531V233.562H143.188V236.469H139V250.719H135.531V222.531H139ZM131.531 225.469C131.531 233.781 128.094 241.062 118.688 245.688L116.719 243C123.594 239.578 127.312 234.766 128.031 228.344H118.25V225.469H131.531ZM174.594 225.281V228.469C174.594 232.25 174.594 236.156 173.562 242.094L170.031 241.781C171.125 236.219 171.125 232.125 171.125 228.469V228.094H154.844V225.281H174.594ZM177.875 244.062V246.906H152.125V244.062H177.875ZM198.062 229.312C198.031 234.5 200.75 239.688 205.344 241.656L203.281 244.438C200.031 242.938 197.641 239.938 196.344 236.25C195.047 240.234 192.625 243.484 189.188 245.094L187.062 242.188C191.781 240.156 194.531 234.75 194.531 229.312V224.812H198.062V229.312ZM210.875 222.531V250.812H207.375V222.531H210.875ZM237.312 222.531V230.656H241.25V233.562H237.312V242.906H233.781V222.531H237.312ZM229.625 224.688C229.625 232.188 224.75 237.531 216.375 239.969L214.938 237.219C221.391 235.359 225.234 231.844 225.844 227.531H216.125V224.688H229.625ZM238.375 247.406V250.219H219.156V240.812H222.688V247.406H238.375ZM265.625 235.375V238.125H257.25V244.594H268.5V247.438H242.688V244.594H253.812V238.125H245.812V224.625H265.406V227.406H249.281V235.375H265.625ZM66.75 282.469V285.281H40.9375V282.469H52V275.938H55.4375V282.469H66.75ZM55.5312 264.312C55.5312 268.594 59.8125 272.812 65.75 273.75L64.25 276.625C59.4688 275.719 55.5625 272.984 53.6875 269.281C51.8125 272.969 47.9375 275.75 43.1875 276.625L41.6875 273.75C47.5938 272.812 51.8125 268.562 51.8438 264.312V262.25H55.5312V264.312ZM94.3438 273.5V276.312H83.1562V278.656C88.2188 279 91.1875 280.75 91.2188 283.688C91.1875 286.938 87.5312 288.75 81.4375 288.75C75.2812 288.75 71.5938 286.938 71.5938 283.688C71.5938 280.75 74.5938 278.984 79.7188 278.656V276.312H68.5938V273.5H94.3438ZM81.4375 281.281C77.3125 281.312 75.0938 282.125 75.125 283.688C75.0938 285.25 77.3125 286.094 81.4375 286.094C85.4688 286.094 87.7188 285.25 87.75 283.688C87.7188 282.125 85.4688 281.312 81.4375 281.281ZM92.0312 261.781V264.562H83.9062C84.4531 266.891 87.8281 268.984 93.125 269.469L91.9062 272.219C86.7812 271.703 82.9688 269.656 81.4375 266.781C79.9062 269.641 76.1562 271.703 71.0312 272.219L69.8438 269.469C75.0312 268.984 78.4062 266.859 79 264.562H70.9375V261.781H92.0312ZM118.375 260.531V271.781H122.719V274.656H118.375V288.781H114.938V260.531H118.375ZM112.75 264.875V267.656H96.0938V264.875H102.781V260.938H106.25V264.875H112.75ZM104.531 269.5C108.594 269.5 111.625 272.25 111.625 276.156C111.625 280.062 108.594 282.781 104.531 282.781C100.406 282.781 97.375 280.062 97.4062 276.156C97.375 272.25 100.406 269.5 104.531 269.5ZM104.531 272.344C102.312 272.344 100.719 273.844 100.719 276.156C100.719 278.469 102.312 279.938 104.531 279.906C106.688 279.938 108.281 278.469 108.312 276.156C108.281 273.844 106.688 272.344 104.531 272.344ZM148.281 260.531V288.781H144.969V260.531H148.281ZM142.281 261.219V287.438H139V274.438H133.969C132.312 277.688 129.656 280.5 125.656 282.812L123.688 280.344C129.547 276.891 132.219 272.469 132.75 266.781H125.125V263.969H136.188C136.188 266.703 135.859 269.266 135.094 271.656H139V261.219H142.281ZM173.5 262.969V276.312H160.125V262.969H173.5ZM163.531 265.75V273.562H170.094V265.75H163.531ZM181.438 260.531V268.812H185.375V271.719H181.438V281.156H177.969V260.531H181.438ZM182.562 285.406V288.219H163.344V279.156H166.812V285.406H182.562ZM212.594 271.844V274.594H186.812V271.844H212.594ZM209.531 267.281V270.031H190.094V261.25H209.281V264.031H193.562V267.281H209.531ZM209.344 276.531V283.625H193.281V285.781H210.125V288.5H189.875V281.125H205.938V279.156H189.844V276.531H209.344ZM222.188 262.594C226.016 262.594 228.844 265.781 229.344 270.938H234.719V260.531H238.156V288.812H234.719V273.75H229.375C229 279.203 226.125 282.562 222.188 282.562C217.938 282.562 214.938 278.719 214.938 272.562C214.938 266.469 217.938 262.594 222.188 262.594ZM222.188 265.719C219.844 265.719 218.25 268.25 218.281 272.562C218.25 276.906 219.844 279.438 222.188 279.438C224.531 279.438 226.094 276.906 226.125 272.562C226.094 268.25 224.531 265.719 222.188 265.719ZM267.875 271.969V274.719H256.688V276.875H264.656V283.812H248.594V285.875H265.438V288.531H245.188V281.375H261.25V279.469H245.156V276.875H253.25V274.719H242.125V271.969H267.875ZM265.562 261.406V264.094H257.188C257.953 266.172 261.406 267.969 266.656 268.344L265.562 270.969C260.5 270.562 256.672 268.859 254.969 266.344C253.266 268.844 249.484 270.562 244.469 270.969L243.375 268.344C248.578 267.953 252 266.188 252.781 264.094H244.469V261.406H265.562ZM294.156 260.531V288.781H290.844V260.531H294.156ZM288.156 261.219V287.438H284.875V274.438H279.844C278.188 277.688 275.531 280.5 271.531 282.812L269.562 280.344C275.422 276.891 278.094 272.469 278.625 266.781H271V263.969H282.062C282.062 266.703 281.734 269.266 280.969 271.656H284.875V261.219H288.156ZM303.25 263.375L302.906 279.344H299.375L299 263.375H303.25ZM301.156 286.25C299.812 286.25 298.719 285.156 298.719 283.812C298.719 282.5 299.812 281.406 301.156 281.406C302.438 281.406 303.562 282.5 303.562 283.812C303.562 285.156 302.438 286.25 301.156 286.25Z" fill="#222222"/>
<path d="M46.0469 186.752C46.0293 189.547 47.6465 192.395 50.002 193.537L48.9648 194.873C47.251 193.985 45.9238 192.219 45.2383 190.109C44.5264 192.359 43.1465 194.24 41.3535 195.172L40.3164 193.818C42.7422 192.658 44.377 189.635 44.377 186.752V184.062H46.0469V186.752ZM52.8496 182.744V189.02H55.3809V190.443H52.8496V198.494H51.1797V182.744H52.8496ZM68.5117 182.762V186.682H70.8145V188.088H68.5117V192.131H66.8418V182.762H68.5117ZM68.5117 192.869V198.301H58.4219V192.869H68.5117ZM60.0566 194.17V196.947H66.8945V194.17H60.0566ZM63.9414 183.588V188.035H58.457V190.004C61.1904 189.995 63.124 189.916 65.418 189.529L65.5938 190.865C63.1504 191.305 61.0762 191.393 58.0527 191.393H56.7871V186.77H62.3066V184.924H56.7695V183.588H63.9414ZM86.0547 190.971V192.307H71.6934V190.971H86.0547ZM84.4375 196.807V198.16H73.5039V193.59H75.1914V196.807H84.4375ZM78.8652 183.271C82.2754 183.254 84.4902 184.449 84.4902 186.418C84.4902 188.404 82.2754 189.6 78.8652 189.617C75.4375 189.6 73.2402 188.404 73.2402 186.418C73.2402 184.449 75.4375 183.254 78.8652 183.271ZM78.8652 184.607C76.457 184.607 74.9453 185.293 74.9629 186.418C74.9453 187.578 76.457 188.246 78.8652 188.246C81.2734 188.246 82.7676 187.578 82.7676 186.418C82.7676 185.293 81.2734 184.607 78.8652 184.607ZM96.1094 183.271C98.4824 183.289 100.223 184.748 100.24 186.805C100.223 188.879 98.4824 190.32 96.1094 190.32C93.7188 190.32 91.9609 188.879 91.9609 186.805C91.9609 184.748 93.7188 183.289 96.1094 183.271ZM96.1094 184.678C94.6504 184.66 93.5781 185.521 93.5957 186.805C93.5781 188.105 94.6504 188.967 96.1094 188.967C97.5508 188.967 98.623 188.105 98.623 186.805C98.623 185.521 97.5508 184.66 96.1094 184.678ZM104.705 182.744V190.76H103.035V182.744H104.705ZM104.705 191.48V195.453H96.0215V196.965H105.232V198.301H94.4043V194.205H103.053V192.816H94.3516V191.48H104.705ZM121.562 191.621V192.975H115.164V198.477H113.529V192.975H107.201V191.621H121.562ZM120.209 183.676V185.012H115.34C115.366 186.963 117.792 188.703 120.771 189.107L120.156 190.426C117.572 190.021 115.34 188.747 114.391 186.945C113.415 188.747 111.191 190.021 108.643 190.426L108.01 189.107C110.954 188.703 113.38 186.963 113.441 185.012H108.537V183.676H120.209ZM127.223 183.271C129.596 183.289 131.336 184.748 131.354 186.805C131.336 188.879 129.596 190.32 127.223 190.32C124.832 190.32 123.074 188.879 123.074 186.805C123.074 184.748 124.832 183.289 127.223 183.271ZM127.223 184.678C125.764 184.66 124.691 185.521 124.709 186.805C124.691 188.105 125.764 188.967 127.223 188.967C128.664 188.967 129.736 188.105 129.736 186.805C129.736 185.521 128.664 184.66 127.223 184.678ZM135.818 182.744V190.76H134.148V182.744H135.818ZM135.818 191.48V195.453H127.135V196.965H136.346V198.301H125.518V194.205H134.166V192.816H125.465V191.48H135.818ZM151.867 182.744V198.494H150.268V182.744H151.867ZM148.668 183.043V197.721H147.068V190.127H145.293C145.152 193.203 143.834 195.119 141.883 195.102C139.826 195.119 138.49 192.957 138.49 189.547C138.49 186.137 139.826 183.992 141.883 184.01C143.799 183.992 145.1 185.812 145.293 188.773H147.068V183.043H148.668ZM141.883 185.574C140.74 185.574 140.037 187.033 140.037 189.547C140.037 192.061 140.74 193.52 141.883 193.52C143.043 193.52 143.764 192.061 143.764 189.547C143.764 187.033 143.043 185.574 141.883 185.574ZM203.336 183.008C206.887 183.008 208.961 183.957 208.961 185.715C208.961 187.473 206.887 188.439 203.336 188.439C199.785 188.439 197.711 187.473 197.711 185.715C197.711 183.957 199.785 183.008 203.336 183.008ZM203.336 184.238C200.822 184.238 199.434 184.783 199.451 185.715C199.434 186.682 200.822 187.191 203.336 187.191C205.85 187.191 207.238 186.682 207.238 185.715C207.238 184.783 205.85 184.238 203.336 184.238ZM210.525 189.406V190.742H196.164V189.406H210.525ZM208.715 191.955V195.646H199.539V197.053H209.154V198.336H197.904V194.434H207.062V193.203H197.887V191.955H208.715ZM229.668 184.484V185.855H216.854V184.484H222.461V182.674H224.113V184.484H229.668ZM230.529 192.939V194.311H224.113V198.512H222.461V194.311H216.115V192.939H230.529ZM223.287 186.664C226.557 186.664 228.525 187.596 228.525 189.318C228.525 191.006 226.557 191.938 223.287 191.955C220 191.938 218.031 191.006 218.049 189.318C218.031 187.596 220 186.664 223.287 186.664ZM223.287 187.912C221.02 187.912 219.771 188.404 219.771 189.318C219.771 190.197 221.02 190.689 223.287 190.689C225.537 190.689 226.785 190.197 226.803 189.318C226.785 188.404 225.537 187.912 223.287 187.912ZM244.697 182.744V198.494H243.027V182.744H244.697ZM231.76 194.205C233.052 194.196 234.537 194.188 236.084 194.135V192.57C234.238 192.333 233.043 191.252 233.061 189.705C233.043 187.93 234.59 186.752 236.875 186.752C239.178 186.752 240.76 187.93 240.76 189.705C240.76 191.234 239.564 192.307 237.736 192.553V194.082C239.195 194.021 240.672 193.906 242.061 193.73L242.184 194.979C238.686 195.559 234.871 195.594 231.988 195.594L231.76 194.205ZM241.709 184.625V185.961H232.094V184.625H236.084V182.779H237.754V184.625H241.709ZM236.875 188.053C235.557 188.053 234.625 188.703 234.643 189.705C234.625 190.707 235.557 191.322 236.875 191.322C238.229 191.322 239.16 190.707 239.16 189.705C239.16 188.703 238.229 188.053 236.875 188.053ZM259.604 182.762V187.824H261.889V189.213H259.604V194.539H257.934V182.762H259.604ZM256.633 184.59V185.943H247.246V184.59H251.113V182.744H252.783V184.59H256.633ZM251.939 186.699C254.207 186.699 255.754 187.877 255.754 189.67C255.754 191.463 254.207 192.623 251.939 192.623C249.654 192.623 248.107 191.463 248.107 189.67C248.107 187.877 249.654 186.699 251.939 186.699ZM251.939 187.982C250.604 187.982 249.707 188.633 249.725 189.67C249.707 190.689 250.604 191.322 251.939 191.322C253.275 191.322 254.172 190.689 254.189 189.67C254.172 188.633 253.275 187.982 251.939 187.982ZM260.271 196.807V198.16H249.619V193.607H251.289V196.807H260.271ZM275.055 182.744V188.844H277.586V190.215H275.055V198.529H273.385V182.744H275.055ZM270.818 184.256V185.609H265.123V193.221C267.769 193.212 269.755 193.098 271.996 192.693L272.207 194.1C269.746 194.539 267.654 194.627 264.719 194.609H263.453V184.256H270.818ZM291.086 184.256V185.803C291.086 187.754 291.086 189.934 290.488 193.15L288.801 192.975C289.416 189.934 289.416 187.701 289.416 185.803V185.609H279.854V184.256H291.086ZM292.703 194.979V196.367H278.342V194.979H283.809V189.424H285.461V194.979H292.703ZM306.08 185.346V186.699H298.258V185.346H301.352V183.201H303.004V185.346H306.08ZM302.178 187.648C304.182 187.648 305.588 189.143 305.605 191.27C305.588 193.414 304.182 194.926 302.178 194.926C300.209 194.926 298.75 193.414 298.768 191.27C298.75 189.143 300.209 187.648 302.178 187.648ZM302.178 189.037C301.035 189.037 300.244 189.969 300.244 191.27C300.244 192.605 301.035 193.502 302.178 193.502C303.303 193.502 304.129 192.605 304.129 191.27C304.129 189.969 303.303 189.037 302.178 189.037ZM311.775 182.744V198.494H310.193V190.672H308.383V197.756H306.801V183.096H308.383V189.301H310.193V182.744H311.775ZM315.643 197.123C314.957 197.123 314.377 196.561 314.395 195.875C314.377 195.189 314.957 194.627 315.643 194.627C316.311 194.627 316.891 195.189 316.891 195.875C316.891 196.561 316.311 197.123 315.643 197.123Z" fill="#7A7A7A"/>
<path d="M158.529 194.521V192.957L164.154 184.273H166.545V192.887H168.285V194.521H166.545V197H164.717V194.521H158.529ZM160.568 192.887H164.717V186.576H164.576L160.568 192.781V192.887ZM174.561 197.176C172.152 197.176 170.342 195.699 170.254 193.678H172.135C172.24 194.768 173.277 195.559 174.561 195.559C176.107 195.559 177.215 194.434 177.215 192.922C177.215 191.375 176.072 190.25 174.473 190.232C173.453 190.232 172.68 190.566 172.24 191.357H170.412L171.238 184.273H178.445V185.926H172.838L172.416 189.494H172.539C173.066 188.984 173.963 188.633 174.93 188.633C177.32 188.633 179.096 190.408 179.096 192.869C179.096 195.383 177.215 197.176 174.561 197.176ZM195.004 190.988V192.324H188.746V195.225H187.094V192.324H180.59V190.988H195.004ZM193.404 196.807V198.16H182.383V193.854H184.035V196.807H193.404ZM184.141 183.236V185.152H191.436V183.236H193.105V189.6H182.488V183.236H184.141ZM184.141 188.264H191.436V186.4H184.141V188.264Z" fill="#FF8F39"/>
<circle cx="221" cy="596" r="143" fill="#FFD298"/>
<path d="M214.779 632.217C217.245 626.065 214.88 619.329 209.497 617.172C204.114 615.014 197.752 618.253 195.286 624.404C192.821 630.556 195.186 637.292 200.569 639.449C205.951 641.606 212.314 638.368 214.779 632.217Z" fill="#022222"/>
<path d="M367.214 673.637L368.275 659.678L354.316 658.616L353.254 672.576L367.214 673.637Z" fill="#022222"/>
<path d="M377.18 674.41C377.18 674.41 377.12 674.41 377.09 674.4H377.25C377.25 674.4 377.21 674.41 377.18 674.41Z" fill="#022222"/>
<path d="M378.581 649.4C383.281 649.76 386.781 654.05 386.141 662.56C385.621 669.42 381.931 674.69 377.271 674.41L378.341 660.38L368.311 659.62C369.411 652.99 374.221 649.06 378.581 649.39V649.4Z" fill="#022222"/>
<path d="M377.08 674.4L351.16 672.43L352.23 658.4L368.31 659.62C368.23 660.13 368.16 660.65 368.12 661.19C367.51 669.61 372.41 673.99 377.08 674.4Z" fill="#022222"/>
<path d="M377.08 674.4C372.41 673.99 367.51 669.61 368.12 661.19C368.16 660.65 368.23 660.13 368.31 659.62L378.34 660.38L377.27 674.41C377.27 674.41 377.25 674.41 377.24 674.41H377.08V674.4Z" fill="#022222"/>
<path d="M292.058 681.254L306.02 682.296L307.062 668.335L293.101 667.292L292.058 681.254Z" fill="#022222"/>
<path d="M292.01 681.28C285.29 681.37 280.69 685.54 280.36 689.9C280.01 694.6 283.73 698.71 292.24 699.35C299.11 699.86 304.87 697 305.29 692.36L291.26 691.31L292.01 681.28Z" fill="#022222"/>
<path d="M305.31 692.17L307.25 666.24L293.22 665.19L292.02 681.27C292.53 681.27 293.06 681.27 293.6 681.32C302.02 681.98 305.62 687.48 305.32 692.16L305.31 692.17Z" fill="#022222"/>
<path d="M305.31 692.17C305.61 687.49 302.01 681.99 293.59 681.33C293.05 681.29 292.53 681.28 292.01 681.28L291.26 691.31L305.29 692.36C305.29 692.36 305.29 692.34 305.29 692.33V692.17H305.31Z" fill="#022222"/>
<path d="M343.88 580.26L389.48 593.32C393.1 594.36 394.36 598.85 391.81 601.62L359.65 636.49L361.32 683.9C361.45 687.67 357.57 690.25 354.15 688.68L311.05 668.87L266.48 685.11C262.94 686.4 259.28 683.51 259.72 679.77L265.24 632.66L236.02 595.29C233.7 592.32 235.32 587.95 239.01 587.21L285.52 577.9L312.03 538.57C314.14 535.45 318.79 535.64 320.64 538.92L343.87 580.28L343.88 580.26Z" fill="#FF5353"/>
<path d="M291.26 594.95C294.97 591.58 300.5 590.6 305.29 592.91" stroke="#022222" stroke-width="2" stroke-linecap="round" stroke-linejoin="round"/>
<path d="M337.2 596.46C333.92 592.67 328.54 591.04 323.51 592.77" stroke="#022222" stroke-width="2" stroke-linecap="round" stroke-linejoin="round"/>
<path d="M287.789 623.27C288.341 623.27 288.789 622.822 288.789 622.27C288.789 621.718 288.341 621.27 287.789 621.27C287.237 621.27 286.789 621.718 286.789 622.27C286.789 622.822 287.237 623.27 287.789 623.27Z" fill="#C92D2D"/>
<path d="M289.789 625.27C290.341 625.27 290.789 624.822 290.789 624.27C290.789 623.718 290.341 623.27 289.789 623.27C289.237 623.27 288.789 623.718 288.789 624.27C288.789 624.822 289.237 625.27 289.789 625.27Z" fill="#C92D2D"/>
<path d="M287.289 627.77C287.841 627.77 288.289 627.322 288.289 626.77C288.289 626.218 287.841 625.77 287.289 625.77C286.737 625.77 286.289 626.218 286.289 626.77C286.289 627.322 286.737 627.77 287.289 627.77Z" fill="#C92D2D"/>
<path d="M290.789 629.27C291.341 629.27 291.789 628.822 291.789 628.27C291.789 627.718 291.341 627.27 290.789 627.27C290.237 627.27 289.789 627.718 289.789 628.27C289.789 628.822 290.237 629.27 290.789 629.27Z" fill="#C92D2D"/>
<path d="M293.789 626.27C294.341 626.27 294.789 625.822 294.789 625.27C294.789 624.718 294.341 624.27 293.789 624.27C293.237 624.27 292.789 624.718 292.789 625.27C292.789 625.822 293.237 626.27 293.789 626.27Z" fill="#C92D2D"/>
<path d="M332.391 625.97C332.943 625.97 333.391 625.522 333.391 624.97C333.391 624.417 332.943 623.97 332.391 623.97C331.838 623.97 331.391 624.417 331.391 624.97C331.391 625.522 331.838 625.97 332.391 625.97Z" fill="#C92D2D"/>
<path d="M335.391 623.97C335.943 623.97 336.391 623.522 336.391 622.97C336.391 622.417 335.943 621.97 335.391 621.97C334.838 621.97 334.391 622.417 334.391 622.97C334.391 623.522 334.838 623.97 335.391 623.97Z" fill="#C92D2D"/>
<path d="M335.391 626.97C335.943 626.97 336.391 626.522 336.391 625.97C336.391 625.417 335.943 624.97 335.391 624.97C334.838 624.97 334.391 625.417 334.391 625.97C334.391 626.522 334.838 626.97 335.391 626.97Z" fill="#C92D2D"/>
<path d="M334.391 629.97C334.943 629.97 335.391 629.522 335.391 628.97C335.391 628.417 334.943 627.97 334.391 627.97C333.838 627.97 333.391 628.417 333.391 628.97C333.391 629.522 333.838 629.97 334.391 629.97Z" fill="#C92D2D"/>
<path d="M339.391 625.97C339.943 625.97 340.391 625.522 340.391 624.97C340.391 624.417 339.943 623.97 339.391 623.97C338.838 623.97 338.391 624.417 338.391 624.97C338.391 625.522 338.838 625.97 339.391 625.97Z" fill="#C92D2D"/>
<path d="M318.62 625.65C314.78 628.32 309.51 627.37 306.84 623.53" stroke="#022222" stroke-width="2" stroke-linecap="round" stroke-linejoin="round"/>
<path d="M301.17 621.27C308.361 621.27 314.19 615.459 314.19 608.29C314.19 601.121 308.361 595.31 301.17 595.31C293.98 595.31 288.15 601.121 288.15 608.29C288.15 615.459 293.98 621.27 301.17 621.27Z" fill="white"/>
<path d="M326.411 621.27C333.601 621.27 339.431 615.459 339.431 608.29C339.431 601.121 333.601 595.31 326.411 595.31C319.22 595.31 313.391 601.121 313.391 608.29C313.391 615.459 319.22 621.27 326.411 621.27Z" fill="white"/>
<path d="M295.88 615.54C300.188 615.54 303.68 612.061 303.68 607.77C303.68 603.479 300.188 600 295.88 600C291.572 600 288.08 603.479 288.08 607.77C288.08 612.061 291.572 615.54 295.88 615.54Z" fill="#022222"/>
<path d="M321.191 615.54C325.498 615.54 328.991 612.061 328.991 607.77C328.991 603.479 325.498 600 321.191 600C316.883 600 313.391 603.479 313.391 607.77C313.391 612.061 316.883 615.54 321.191 615.54Z" fill="#022222"/>
<path d="M265.116 644.71C270.499 642.553 272.864 635.817 270.398 629.665C267.933 623.514 261.571 620.275 256.188 622.433C250.805 624.59 248.44 631.326 250.906 637.478C253.371 643.629 259.733 646.867 265.116 644.71Z" fill="#022222"/>
<path d="M155.309 661.562L142.746 667.741L152.014 686.585L164.577 680.406L155.309 661.562Z" fill="#022222"/>
<path d="M164.649 680.4C170.919 677.98 176.739 680.12 178.679 684.05C180.759 688.28 178.839 693.48 171.189 697.25C165.009 700.29 158.599 699.79 156.469 695.64L169.089 689.43L164.649 680.41V680.4Z" fill="#022222"/>
<path d="M156.419 695.549C156.419 695.549 156.399 695.489 156.379 695.459L156.449 695.609C156.449 695.609 156.429 695.569 156.419 695.549Z" fill="#022222"/>
<path d="M156.449 695.61C156.449 695.61 156.449 695.62 156.459 695.63L156.449 695.61Z" fill="#022222"/>
<path d="M156.378 695.47L144.898 672.14L157.528 665.93L164.648 680.4C164.168 680.59 163.688 680.79 163.208 681.03C155.648 684.79 154.358 691.23 156.388 695.47H156.378Z" fill="#022222"/>
<path d="M156.379 695.47C154.359 691.24 155.639 684.79 163.199 681.03C163.679 680.79 164.169 680.58 164.639 680.4L169.079 689.42L156.459 695.63C156.459 695.63 156.459 695.62 156.449 695.61L156.379 695.46V695.47Z" fill="#022222"/>
<path d="M99.425 672.9L109.057 683.061L124.297 668.613L114.665 658.453L99.425 672.9Z" fill="#022222"/>
<path d="M99.3398 672.88C94.2998 668.43 88.0998 668.42 84.9198 671.43C81.4998 674.67 81.4898 680.22 87.3598 686.41C92.0998 691.41 98.2898 693.17 101.72 690.01L92.0398 679.8L99.3398 672.88Z" fill="#022222"/>
<path d="M101.8 689.95C101.8 689.95 101.84 689.9 101.87 689.88L101.75 689.99C101.75 689.99 101.79 689.96 101.8 689.95Z" fill="#022222"/>
<path d="M101.75 690C101.75 690 101.74 690.01 101.73 690.02L101.75 690Z" fill="#022222"/>
<path d="M101.86 689.89L120.73 672L111.05 661.79L99.3496 672.89C99.7396 673.23 100.12 673.59 100.49 673.98C106.27 680.13 105.24 686.62 101.87 689.89H101.86Z" fill="#022222"/>
<path d="M101.859 689.89C105.229 686.63 106.259 680.13 100.479 673.98C100.109 673.59 99.7291 673.23 99.3391 672.89L92.0391 679.81L101.719 690.02C101.719 690.02 101.729 690.01 101.739 690L101.859 689.89Z" fill="#022222"/>
<path d="M132.14 685.32L124.47 678.55C124.38 678.47 124.29 678.39 124.19 678.32C80.38 644.12 51.75 621.05 51.75 592.79C51.75 569.7 72.01 551.83 98.17 551.83C110.72 551.83 123.28 556.39 132.44 564.02C134.57 565.79 137.73 565.79 139.86 564.02C149.02 556.39 161.58 551.83 174.13 551.83C200.29 551.83 220.55 569.7 220.55 592.79C220.55 621.06 191.92 644.12 148.11 678.32C148.02 678.39 147.92 678.47 147.83 678.55L140.16 685.32C137.88 687.34 134.43 687.34 132.14 685.32Z" fill="#8C40FF"/>
<path d="M113.021 621.83C117.146 621.83 120.491 618.696 120.491 614.83C120.491 610.964 117.146 607.83 113.021 607.83C108.895 607.83 105.551 610.964 105.551 614.83C105.551 618.696 108.895 621.83 113.021 621.83Z" fill="#5A25C1"/>
<path d="M161.55 621.83C165.676 621.83 169.02 618.696 169.02 614.83C169.02 610.964 165.676 607.83 161.55 607.83C157.425 607.83 154.08 610.964 154.08 614.83C154.08 618.696 157.425 621.83 161.55 621.83Z" fill="#5A25C1"/>
<path d="M144.141 612.04C141.041 616.31 135.071 617.25 130.801 614.15" stroke="#022222" stroke-width="2" stroke-linecap="round" stroke-linejoin="round"/>
<path d="M355.79 627.33C358.23 623.55 362.17 621.43 365.98 621.44L367.83 615.55C368.35 613.89 370.12 612.97 371.78 613.49C373.44 614.01 374.36 615.78 373.84 617.44L371.93 623.52C371.93 623.52 372 623.58 372.03 623.6L377.87 620.53C379.41 619.72 381.31 620.31 382.12 621.85C382.93 623.39 382.34 625.29 380.8 626.1L375.28 629.01C375.99 632.09 375.43 635.62 373.44 638.7C369.85 644.27 362.99 646.24 358.11 643.1C353.24 639.96 352.19 632.9 355.78 627.33H355.79Z" fill="#022222"/>
<path d="M123.84 609.26C131.031 609.26 136.86 603.448 136.86 596.28C136.86 589.111 131.031 583.3 123.84 583.3C116.65 583.3 110.82 589.111 110.82 596.28C110.82 603.448 116.65 609.26 123.84 609.26Z" fill="white"/>
<path d="M149.081 609.26C156.271 609.26 162.101 603.448 162.101 596.28C162.101 589.111 156.271 583.3 149.081 583.3C141.89 583.3 136.061 589.111 136.061 596.28C136.061 603.448 141.89 609.26 149.081 609.26Z" fill="white"/>
<path d="M154.31 603.53C158.618 603.53 162.11 600.051 162.11 595.76C162.11 591.469 158.618 587.99 154.31 587.99C150.002 587.99 146.51 591.469 146.51 595.76C146.51 600.051 150.002 603.53 154.31 603.53Z" fill="#022222"/>
<path d="M57.484 607.254C62.0524 603.682 62.4467 596.554 58.3646 591.333C54.2826 586.112 47.27 584.775 42.7015 588.347C38.1331 591.919 37.7389 599.047 41.8209 604.268C45.903 609.489 52.9156 610.826 57.484 607.254Z" fill="#022222"/>
<path d="M141.619 576.83L156.549 578.39" stroke="#022222" stroke-width="2" stroke-linecap="round" stroke-linejoin="round"/>
<path d="M118.801 580.74L131.941 579.56" stroke="#022222" stroke-width="2" stroke-linecap="round" stroke-linejoin="round"/>
<path d="M119.311 591.31C119.311 591.31 127.771 591.56 132.491 596.28C132.491 596.28 123.791 596.7 119.741 600.07" stroke="#022222" stroke-width="2" stroke-linecap="round" stroke-linejoin="round"/>
<path d="M171.929 475C152.799 475 137.289 489.3 137.289 506.93C137.289 518.46 143.919 528.55 153.849 534.17L151.749 543.25L161.739 537.46C164.959 538.37 168.379 538.87 171.929 538.87C191.059 538.87 206.569 524.57 206.569 506.94C206.569 489.31 191.059 475 171.929 475Z" fill="#F1F1F1"/>
<path d="M257.301 508.6C273.771 508.6 287.131 520.91 287.131 536.1C287.131 546.03 281.421 554.72 272.871 559.56L274.671 567.38L266.071 562.39C263.301 563.18 260.351 563.6 257.301 563.6C240.831 563.6 227.471 551.29 227.471 536.1C227.471 520.91 240.821 508.6 257.301 508.6Z" fill="#F1F1F1"/>
<path d="M166.21 512.59L166.75 510.43C167.43 507.71 168.27 506.15 170.54 505.48C172.33 504.95 173.78 504.52 174.69 504.03C176.08 503.29 176.56 502.58 176.86 501.37C177.27 499.74 176.21 498.39 174.62 498C173.03 497.61 171.34 498.05 170.55 499.39C169.63 500.97 167.91 501.55 166 500.93C164.4 500.42 163.22 498.96 163.84 496.78C165.06 492.5 170.52 490.33 176.18 491.74C181.84 493.15 185.58 497.13 184.08 503.18C183.49 505.55 182.54 507.12 180.89 508.29C179.52 509.26 177.51 510.08 175.5 510.78C174.34 511.2 173.99 511.87 173.76 512.79L173.36 514.38L166.21 512.6V512.59ZM168.9 517.01C171.27 517.6 172.33 519.37 171.79 521.53C171.25 523.69 169.48 524.75 167.12 524.16C164.76 523.57 163.68 521.84 164.22 519.64C164.76 517.44 166.53 516.42 168.9 517.01Z" fill="#022222"/>
<path d="M258.99 544.29C261.17 543.85 262.72 544.89 263.12 546.88C263.52 548.87 262.48 550.42 260.3 550.86C258.12 551.3 256.57 550.29 256.17 548.27C255.77 546.25 256.81 544.73 258.99 544.29ZM255.03 541.71L251.59 524.53C251.17 522.42 252.54 521 254.26 520.65C255.98 520.3 257.8 521.12 258.22 523.2L261.66 540.38L255.03 541.71Z" fill="#022222"/>
<circle cx="173" cy="110" r="6" fill="#FF8F39"/>
<circle cx="201" cy="110" r="6" fill="#F1F1F1"/>
<circle cx="229" cy="110" r="6" fill="#F1F1F1"/>
<circle cx="257" cy="110" r="6" fill="#F1F1F1"/>
</svg>
