<svg width="360" height="286" viewBox="0 0 360 286" fill="none" xmlns="http://www.w3.org/2000/svg">
<circle cx="187" cy="143" r="143" fill="#FFD298"/>
<path d="M180.779 179.217C183.245 173.065 180.88 166.329 175.497 164.172C170.114 162.014 163.752 165.253 161.286 171.404C158.821 177.556 161.186 184.292 166.569 186.449C171.951 188.606 178.314 185.368 180.779 179.217Z" fill="#022222"/>
<path d="M333.214 220.637L334.275 206.678L320.316 205.616L319.254 219.576L333.214 220.637Z" fill="#022222"/>
<path d="M343.18 221.41C343.18 221.41 343.12 221.41 343.09 221.4H343.25C343.25 221.4 343.21 221.41 343.18 221.41Z" fill="#022222"/>
<path d="M344.581 196.4C349.281 196.76 352.781 201.05 352.141 209.56C351.621 216.42 347.931 221.69 343.271 221.41L344.341 207.38L334.311 206.62C335.411 199.99 340.221 196.06 344.581 196.39V196.4Z" fill="#022222"/>
<path d="M343.08 221.4L317.16 219.43L318.23 205.4L334.31 206.62C334.23 207.13 334.16 207.65 334.12 208.19C333.51 216.61 338.41 220.99 343.08 221.4Z" fill="#022222"/>
<path d="M343.08 221.4C338.41 220.99 333.51 216.61 334.12 208.19C334.16 207.65 334.23 207.13 334.31 206.62L344.34 207.38L343.27 221.41C343.27 221.41 343.25 221.41 343.24 221.41H343.08V221.4Z" fill="#022222"/>
<path d="M258.058 228.254L272.02 229.296L273.062 215.335L259.101 214.292L258.058 228.254Z" fill="#022222"/>
<path d="M258.01 228.28C251.29 228.37 246.69 232.54 246.36 236.9C246.01 241.6 249.73 245.71 258.24 246.35C265.11 246.86 270.87 244 271.29 239.36L257.26 238.31L258.01 228.28Z" fill="#022222"/>
<path d="M271.31 239.17L273.25 213.24L259.22 212.19L258.02 228.27C258.53 228.27 259.06 228.27 259.6 228.32C268.02 228.98 271.62 234.48 271.32 239.16L271.31 239.17Z" fill="#022222"/>
<path d="M271.31 239.17C271.61 234.49 268.01 228.99 259.59 228.33C259.05 228.29 258.53 228.28 258.01 228.28L257.26 238.31L271.29 239.36C271.29 239.36 271.29 239.34 271.29 239.33V239.17H271.31Z" fill="#022222"/>
<path d="M309.88 127.26L355.48 140.32C359.1 141.36 360.36 145.85 357.81 148.62L325.65 183.49L327.32 230.9C327.45 234.67 323.57 237.25 320.15 235.68L277.05 215.87L232.48 232.11C228.94 233.4 225.28 230.51 225.72 226.77L231.24 179.66L202.02 142.29C199.7 139.32 201.32 134.95 205.01 134.21L251.52 124.9L278.03 85.5701C280.14 82.4501 284.79 82.6401 286.64 85.9201L309.87 127.28L309.88 127.26Z" fill="#FF5353"/>
<path d="M257.26 141.95C260.97 138.58 266.5 137.6 271.29 139.91" stroke="#022222" stroke-width="2" stroke-linecap="round" stroke-linejoin="round"/>
<path d="M303.2 143.46C299.92 139.67 294.54 138.04 289.51 139.77" stroke="#022222" stroke-width="2" stroke-linecap="round" stroke-linejoin="round"/>
<path d="M253.789 170.27C254.341 170.27 254.789 169.822 254.789 169.27C254.789 168.718 254.341 168.27 253.789 168.27C253.237 168.27 252.789 168.718 252.789 169.27C252.789 169.822 253.237 170.27 253.789 170.27Z" fill="#C92D2D"/>
<path d="M255.789 172.27C256.341 172.27 256.789 171.822 256.789 171.27C256.789 170.718 256.341 170.27 255.789 170.27C255.237 170.27 254.789 170.718 254.789 171.27C254.789 171.822 255.237 172.27 255.789 172.27Z" fill="#C92D2D"/>
<path d="M253.289 174.77C253.841 174.77 254.289 174.322 254.289 173.77C254.289 173.218 253.841 172.77 253.289 172.77C252.737 172.77 252.289 173.218 252.289 173.77C252.289 174.322 252.737 174.77 253.289 174.77Z" fill="#C92D2D"/>
<path d="M256.789 176.27C257.341 176.27 257.789 175.822 257.789 175.27C257.789 174.718 257.341 174.27 256.789 174.27C256.237 174.27 255.789 174.718 255.789 175.27C255.789 175.822 256.237 176.27 256.789 176.27Z" fill="#C92D2D"/>
<path d="M259.789 173.27C260.341 173.27 260.789 172.822 260.789 172.27C260.789 171.718 260.341 171.27 259.789 171.27C259.237 171.27 258.789 171.718 258.789 172.27C258.789 172.822 259.237 173.27 259.789 173.27Z" fill="#C92D2D"/>
<path d="M298.391 172.97C298.943 172.97 299.391 172.522 299.391 171.97C299.391 171.417 298.943 170.97 298.391 170.97C297.838 170.97 297.391 171.417 297.391 171.97C297.391 172.522 297.838 172.97 298.391 172.97Z" fill="#C92D2D"/>
<path d="M301.391 170.97C301.943 170.97 302.391 170.522 302.391 169.97C302.391 169.417 301.943 168.97 301.391 168.97C300.838 168.97 300.391 169.417 300.391 169.97C300.391 170.522 300.838 170.97 301.391 170.97Z" fill="#C92D2D"/>
<path d="M301.391 173.97C301.943 173.97 302.391 173.522 302.391 172.97C302.391 172.417 301.943 171.97 301.391 171.97C300.838 171.97 300.391 172.417 300.391 172.97C300.391 173.522 300.838 173.97 301.391 173.97Z" fill="#C92D2D"/>
<path d="M300.391 176.97C300.943 176.97 301.391 176.522 301.391 175.97C301.391 175.417 300.943 174.97 300.391 174.97C299.838 174.97 299.391 175.417 299.391 175.97C299.391 176.522 299.838 176.97 300.391 176.97Z" fill="#C92D2D"/>
<path d="M305.391 172.97C305.943 172.97 306.391 172.522 306.391 171.97C306.391 171.417 305.943 170.97 305.391 170.97C304.838 170.97 304.391 171.417 304.391 171.97C304.391 172.522 304.838 172.97 305.391 172.97Z" fill="#C92D2D"/>
<path d="M284.62 172.65C280.78 175.32 275.51 174.37 272.84 170.53" stroke="#022222" stroke-width="2" stroke-linecap="round" stroke-linejoin="round"/>
<path d="M267.17 168.27C274.361 168.27 280.19 162.459 280.19 155.29C280.19 148.121 274.361 142.31 267.17 142.31C259.98 142.31 254.15 148.121 254.15 155.29C254.15 162.459 259.98 168.27 267.17 168.27Z" fill="white"/>
<path d="M292.411 168.27C299.601 168.27 305.431 162.459 305.431 155.29C305.431 148.121 299.601 142.31 292.411 142.31C285.22 142.31 279.391 148.121 279.391 155.29C279.391 162.459 285.22 168.27 292.411 168.27Z" fill="white"/>
<path d="M261.88 162.54C266.188 162.54 269.68 159.061 269.68 154.77C269.68 150.479 266.188 147 261.88 147C257.572 147 254.08 150.479 254.08 154.77C254.08 159.061 257.572 162.54 261.88 162.54Z" fill="#022222"/>
<path d="M287.191 162.54C291.498 162.54 294.991 159.061 294.991 154.77C294.991 150.479 291.498 147 287.191 147C282.883 147 279.391 150.479 279.391 154.77C279.391 159.061 282.883 162.54 287.191 162.54Z" fill="#022222"/>
<path d="M231.116 191.71C236.499 189.553 238.864 182.817 236.398 176.665C233.933 170.514 227.571 167.275 222.188 169.433C216.805 171.59 214.44 178.326 216.906 184.478C219.371 190.629 225.733 193.867 231.116 191.71Z" fill="#022222"/>
<path d="M121.309 208.562L108.746 214.741L118.014 233.585L130.577 227.406L121.309 208.562Z" fill="#022222"/>
<path d="M130.649 227.4C136.919 224.98 142.739 227.12 144.679 231.05C146.759 235.28 144.839 240.48 137.189 244.25C131.009 247.29 124.599 246.79 122.469 242.64L135.089 236.43L130.649 227.41V227.4Z" fill="#022222"/>
<path d="M122.419 242.549C122.419 242.549 122.399 242.489 122.379 242.459L122.449 242.609C122.449 242.609 122.429 242.569 122.419 242.549Z" fill="#022222"/>
<path d="M122.449 242.61C122.449 242.61 122.449 242.62 122.459 242.63L122.449 242.61Z" fill="#022222"/>
<path d="M122.378 242.47L110.898 219.14L123.528 212.93L130.648 227.4C130.168 227.59 129.688 227.79 129.208 228.03C121.648 231.79 120.358 238.23 122.388 242.47H122.378Z" fill="#022222"/>
<path d="M122.379 242.47C120.359 238.24 121.639 231.79 129.199 228.03C129.679 227.79 130.169 227.58 130.639 227.4L135.079 236.42L122.459 242.63C122.459 242.63 122.459 242.62 122.449 242.61L122.379 242.46V242.47Z" fill="#022222"/>
<path d="M65.425 219.9L75.0566 230.061L90.2971 215.613L80.6654 205.453L65.425 219.9Z" fill="#022222"/>
<path d="M65.3398 219.88C60.2998 215.43 54.0998 215.42 50.9198 218.43C47.4998 221.67 47.4898 227.22 53.3598 233.41C58.0998 238.41 64.2898 240.17 67.7198 237.01L58.0398 226.8L65.3398 219.88Z" fill="#022222"/>
<path d="M67.8 236.95C67.8 236.95 67.84 236.9 67.87 236.88L67.75 236.99C67.75 236.99 67.79 236.96 67.8 236.95Z" fill="#022222"/>
<path d="M67.7505 237C67.7505 237 67.7405 237.01 67.7305 237.02L67.7505 237Z" fill="#022222"/>
<path d="M67.8596 236.89L86.7296 219L77.0496 208.79L65.3496 219.89C65.7396 220.23 66.1196 220.59 66.4896 220.98C72.2696 227.13 71.2396 233.62 67.8696 236.89H67.8596Z" fill="#022222"/>
<path d="M67.8591 236.89C71.2291 233.63 72.2591 227.13 66.4791 220.98C66.1091 220.59 65.7291 220.23 65.3391 219.89L58.0391 226.81L67.7191 237.02C67.7191 237.02 67.7291 237.01 67.7391 237L67.8591 236.89Z" fill="#022222"/>
<path d="M98.14 232.32L90.47 225.55C90.38 225.47 90.29 225.39 90.19 225.32C46.38 191.12 17.75 168.05 17.75 139.79C17.75 116.7 38.01 98.8301 64.17 98.8301C76.72 98.8301 89.28 103.39 98.44 111.02C100.57 112.79 103.73 112.79 105.86 111.02C115.02 103.39 127.58 98.8301 140.13 98.8301C166.29 98.8301 186.55 116.7 186.55 139.79C186.55 168.06 157.92 191.12 114.11 225.32C114.02 225.39 113.92 225.47 113.83 225.55L106.16 232.32C103.88 234.34 100.43 234.34 98.14 232.32Z" fill="#8C40FF"/>
<path d="M79.0208 168.83C83.1463 168.83 86.4908 165.696 86.4908 161.83C86.4908 157.964 83.1463 154.83 79.0208 154.83C74.8952 154.83 71.5508 157.964 71.5508 161.83C71.5508 165.696 74.8952 168.83 79.0208 168.83Z" fill="#5A25C1"/>
<path d="M127.55 168.83C131.676 168.83 135.02 165.696 135.02 161.83C135.02 157.964 131.676 154.83 127.55 154.83C123.425 154.83 120.08 157.964 120.08 161.83C120.08 165.696 123.425 168.83 127.55 168.83Z" fill="#5A25C1"/>
<path d="M110.141 159.04C107.041 163.31 101.071 164.25 96.8008 161.15" stroke="#022222" stroke-width="2" stroke-linecap="round" stroke-linejoin="round"/>
<path d="M321.79 174.33C324.23 170.55 328.17 168.43 331.98 168.44L333.83 162.55C334.35 160.89 336.12 159.97 337.78 160.49C339.44 161.01 340.36 162.78 339.84 164.44L337.93 170.52C337.93 170.52 338 170.58 338.03 170.6L343.87 167.53C345.41 166.72 347.31 167.31 348.12 168.85C348.93 170.39 348.34 172.29 346.8 173.1L341.28 176.01C341.99 179.09 341.43 182.62 339.44 185.7C335.85 191.27 328.99 193.24 324.11 190.1C319.24 186.96 318.19 179.9 321.78 174.33H321.79Z" fill="#022222"/>
<path d="M89.8403 156.26C97.0311 156.26 102.86 150.448 102.86 143.28C102.86 136.111 97.0311 130.3 89.8403 130.3C82.6496 130.3 76.8203 136.111 76.8203 143.28C76.8203 150.448 82.6496 156.26 89.8403 156.26Z" fill="white"/>
<path d="M115.081 156.26C122.271 156.26 128.101 150.448 128.101 143.28C128.101 136.111 122.271 130.3 115.081 130.3C107.89 130.3 102.061 136.111 102.061 143.28C102.061 150.448 107.89 156.26 115.081 156.26Z" fill="white"/>
<path d="M120.31 150.53C124.618 150.53 128.11 147.051 128.11 142.76C128.11 138.469 124.618 134.99 120.31 134.99C116.002 134.99 112.51 138.469 112.51 142.76C112.51 147.051 116.002 150.53 120.31 150.53Z" fill="#022222"/>
<path d="M23.484 154.254C28.0524 150.682 28.4467 143.554 24.3646 138.333C20.2826 133.112 13.27 131.775 8.70154 135.347C4.13312 138.919 3.73886 146.047 7.82093 151.268C11.903 156.489 18.9156 157.826 23.484 154.254Z" fill="#022222"/>
<path d="M107.619 123.83L122.549 125.39" stroke="#022222" stroke-width="2" stroke-linecap="round" stroke-linejoin="round"/>
<path d="M84.8008 127.74L97.9408 126.56" stroke="#022222" stroke-width="2" stroke-linecap="round" stroke-linejoin="round"/>
<path d="M85.3105 138.31C85.3105 138.31 93.7705 138.56 98.4905 143.28C98.4905 143.28 89.7905 143.7 85.7405 147.07" stroke="#022222" stroke-width="2" stroke-linecap="round" stroke-linejoin="round"/>
<path d="M137.929 22C118.799 22 103.289 36.3 103.289 53.93C103.289 65.46 109.919 75.55 119.849 81.17L117.749 90.25L127.739 84.46C130.959 85.37 134.379 85.87 137.929 85.87C157.059 85.87 172.569 71.57 172.569 53.94C172.569 36.31 157.059 22 137.929 22Z" fill="#F1F1F1"/>
<path d="M223.301 55.6001C239.771 55.6001 253.131 67.9101 253.131 83.1001C253.131 93.0301 247.421 101.72 238.871 106.56L240.671 114.38L232.071 109.39C229.301 110.18 226.351 110.6 223.301 110.6C206.831 110.6 193.471 98.2901 193.471 83.1001C193.471 67.9101 206.821 55.6001 223.301 55.6001Z" fill="#F1F1F1"/>
<path d="M132.21 59.59L132.75 57.43C133.43 54.71 134.27 53.15 136.54 52.48C138.33 51.95 139.78 51.52 140.69 51.03C142.08 50.29 142.56 49.58 142.86 48.37C143.27 46.74 142.21 45.39 140.62 45C139.03 44.61 137.34 45.05 136.55 46.39C135.63 47.97 133.91 48.55 132 47.93C130.4 47.42 129.22 45.96 129.84 43.78C131.06 39.5 136.52 37.33 142.18 38.74C147.84 40.15 151.58 44.13 150.08 50.18C149.49 52.55 148.54 54.12 146.89 55.29C145.52 56.26 143.51 57.08 141.5 57.78C140.34 58.2 139.99 58.87 139.76 59.79L139.36 61.38L132.21 59.6V59.59ZM134.9 64.01C137.27 64.6 138.33 66.37 137.79 68.53C137.25 70.69 135.48 71.75 133.12 71.16C130.76 70.57 129.68 68.84 130.22 66.64C130.76 64.44 132.53 63.42 134.9 64.01Z" fill="#022222"/>
<path d="M224.99 91.29C227.17 90.85 228.72 91.89 229.12 93.88C229.52 95.87 228.48 97.42 226.3 97.86C224.12 98.3 222.57 97.29 222.17 95.27C221.77 93.25 222.81 91.73 224.99 91.29ZM221.03 88.71L217.59 71.53C217.17 69.42 218.54 68 220.26 67.65C221.98 67.3 223.8 68.12 224.22 70.2L227.66 87.38L221.03 88.71Z" fill="#022222"/>
</svg>
