<svg width="430" height="932" viewBox="0 0 430 932" fill="none" xmlns="http://www.w3.org/2000/svg">
<g clip-path="url(#clip0_262_11544)">
<rect width="430" height="932" fill="white"/>
<rect width="430" height="932" fill="#FFF3E5"/>
<path d="M144.961 204.172V206.281H127.664V204.172H135.047V201.852H137.625V204.172H144.961ZM146.062 215.586V217.719H137.625V223.109H135.047V217.719H126.703V215.586H146.062ZM136.336 207.242C140.812 207.242 143.508 208.508 143.508 210.828C143.508 213.148 140.812 214.414 136.336 214.414C131.859 214.414 129.164 213.148 129.164 210.828C129.164 208.508 131.859 207.242 136.336 207.242ZM136.336 209.188C133.406 209.188 131.859 209.75 131.883 210.828C131.859 211.906 133.406 212.469 136.336 212.469C139.266 212.469 140.812 211.906 140.812 210.828C140.812 209.75 139.266 209.188 136.336 209.188ZM165.094 201.898V223.086H162.492V201.898H165.094ZM147.539 217.203C149.227 217.191 151.137 217.191 153.141 217.133V215.188C150.75 214.812 149.203 213.348 149.203 211.344C149.203 208.953 151.312 207.359 154.406 207.359C157.523 207.359 159.68 208.953 159.68 211.344C159.68 213.336 158.121 214.789 155.742 215.164V217.039C157.605 216.957 159.48 216.805 161.25 216.57L161.438 218.516C156.773 219.312 151.734 219.359 147.914 219.359L147.539 217.203ZM160.875 204.336V206.398H147.984V204.336H153.141V201.969H155.742V204.336H160.875ZM154.406 209.352C152.812 209.375 151.664 210.102 151.688 211.344C151.664 212.562 152.812 213.289 154.406 213.266C156.07 213.289 157.172 212.562 157.172 211.344C157.172 210.102 156.07 209.375 154.406 209.352ZM187.523 211.508V213.477H168.164V211.508H187.523ZM185.18 214.742V219.57H173.039V221.047H185.812V222.852H170.438V217.883H182.602V216.57H170.414V214.742H185.18ZM185.133 202.367V207.148H173.203V208.531H185.508V210.312H170.625V205.461H182.531V204.172H170.555V202.367H185.133ZM211.336 201.898V206.023H214.289V208.18H211.336V212.445H208.734V201.898H211.336ZM198.164 202.836V209.516C200.848 209.492 203.73 209.27 206.812 208.672L207.117 210.805C203.602 211.531 200.367 211.719 197.297 211.695H195.539V202.836H198.164ZM211.336 213.359V218.984H200.109V220.719H211.992V222.828H197.508V216.992H208.711V215.422H197.484V213.359H211.336ZM233.016 201.898V223.109H230.438V201.898H233.016ZM226.5 203.75V211.695H219.211V215.961C222.551 215.938 225.434 215.773 228.727 215.211L228.961 217.344C225.352 217.977 222.188 218.094 218.391 218.094H216.539V209.633H223.852V205.859H216.516V203.75H226.5ZM253.266 207.898V209.961H238.594V202.672H241.172V207.898H253.266ZM255.445 212.422V214.484H236.086V212.422H255.445ZM253.406 220.484V222.594H238.406V216.359H241.008V220.484H253.406ZM267.445 214.602V216.617H276.773V214.602H279.375V222.828H264.867V214.602H267.445ZM267.445 220.766H276.773V218.609H267.445V220.766ZM281.859 211.273V213.406H262.547V211.273H281.859ZM273.539 202.93C273.539 205.203 276.445 207.594 280.828 208.109L279.914 210.172C276.363 209.691 273.562 208.121 272.203 205.977C270.832 208.133 268.02 209.691 264.492 210.172L263.531 208.109C267.961 207.57 270.844 205.273 270.867 202.93V202.133H273.539V202.93ZM295.125 203.469V204.734C295.102 206.188 295.102 208.273 294.609 210.969L292.031 210.734C292.441 208.543 292.523 206.926 292.57 205.625H284.32V203.469H295.125ZM289.781 208.297V212.516C291.973 212.434 294.223 212.27 296.273 211.977L296.414 213.852C292.008 214.648 287.016 214.719 283.289 214.742L283.055 212.656C284.309 212.645 285.715 212.633 287.203 212.609V208.297H289.781ZM300.188 201.898V208.508H302.93V210.688H300.188V217.766H297.516V201.898H300.188ZM300.867 220.555V222.664H286.219V216.359H288.844V220.555H300.867Z" fill="#FF8F39"/>
<path d="M198.392 270.952C198.392 272.2 199.592 272.488 206.744 272.488C213.896 272.488 215.096 272.2 215.096 270.952C215.096 269.704 213.896 269.416 206.744 269.416C199.592 269.416 198.392 269.704 198.392 270.952ZM211.928 287.128C210.536 287.128 209.864 287.848 209.864 289.144V293.896C209.864 294.904 209.336 295.48 208.328 295.48H204.488C203.48 295.48 202.904 294.904 202.904 293.896V289.48C202.904 288.472 203.48 287.56 204.344 287.176C198.392 287.128 192.872 286.888 189.128 286.36C188.024 286.216 187.544 285.736 187.544 284.824V281.272C187.544 280.264 188.12 279.688 189.128 279.832C193.256 280.36 199.592 280.648 206.312 280.648C213.8 280.648 220.616 280.312 223.592 279.832C224.6 279.64 225.224 280.264 225.224 281.272V284.824C225.224 285.688 224.744 286.168 223.64 286.36C221.336 286.744 216.824 287.128 211.928 287.128ZM191.528 270.952C191.528 265.72 195.224 264.04 206.744 264.04C218.264 264.04 221.96 265.72 221.96 270.952C221.96 276.184 218.264 277.864 206.744 277.864C195.224 277.864 191.528 276.184 191.528 270.952ZM221.912 256.216C222.776 256.216 223.256 256.696 223.256 257.56V260.44C223.256 261.304 222.776 261.784 221.912 261.784H191.576C190.712 261.784 190.232 261.304 190.232 260.44V257.56C190.232 256.696 190.712 256.216 191.576 256.216H204.2C203.72 255.928 203.48 255.496 203.48 254.824V254.008C203.48 253 203.96 252.52 204.968 252.52H208.952C209.96 252.52 210.44 253 210.44 254.008V255.16C210.44 255.784 210.872 256.216 211.736 256.216H221.912ZM231.063 271.432C232.935 270.184 234.759 269.608 236.871 269.608C241.095 269.608 244.071 272.728 247.431 272.728C249.351 272.728 251.079 271.96 253.143 270.28C253.383 270.088 253.623 269.992 253.815 269.992C254.247 269.992 254.583 270.424 254.583 271.096V275.512C254.583 276.376 254.391 276.76 253.623 277.48C252.135 278.824 250.407 279.448 247.863 279.448C243.783 279.448 240.567 276.328 237.015 276.328C235.143 276.328 233.415 277.096 231.543 278.632C231.303 278.824 231.063 278.92 230.871 278.92C230.439 278.92 230.103 278.488 230.103 277.816V273.4C230.103 272.44 230.343 271.912 231.063 271.432ZM291.608 255.64C291.608 254.632 292.088 254.152 293.096 254.152H296.6C297.608 254.152 298.088 254.632 298.088 255.64V295.672C298.088 296.68 297.608 297.16 296.6 297.16H293.096C292.088 297.16 291.608 296.68 291.608 295.672V277.192H289.64C288.584 277.192 287.768 277.96 287.768 279.016V295.672C287.768 296.68 287.288 297.16 286.28 297.16H282.776C281.768 297.16 281.288 296.68 281.288 295.672V256.12C281.288 255.112 281.768 254.632 282.776 254.632H286.28C287.288 254.632 287.768 255.112 287.768 256.12V271.384C288.2 270.808 288.968 270.472 289.784 270.472H291.608V255.64ZM268.232 267.304C274.76 267.304 277.496 271.624 277.496 278.968C277.496 286.312 274.76 290.632 268.232 290.632C261.704 290.632 258.968 286.312 258.968 278.968C258.968 271.624 261.704 267.304 268.232 267.304ZM271.4 257.08C271.4 257.704 271.832 258.136 272.696 258.136H277.4C278.408 258.136 278.984 258.712 278.984 259.72V263.032C278.984 264.04 278.408 264.616 277.4 264.616H259.112C258.104 264.616 257.528 264.04 257.528 263.032V259.72C257.528 258.712 258.104 258.136 259.112 258.136H265.88C265.4 257.848 265.16 257.416 265.16 256.744V254.488C265.16 253.48 265.64 253 266.648 253H269.912C270.92 253 271.4 253.48 271.4 254.488V257.08ZM268.232 284.248C270.344 284.248 271.112 282.328 271.112 278.968C271.112 275.608 270.344 273.688 268.232 273.688C266.12 273.688 265.352 275.608 265.352 278.968C265.352 282.328 266.12 284.248 268.232 284.248Z" fill="#FF8F39"/>
<g clip-path="url(#clip1_262_11544)">
<mask id="mask0_262_11544" style="mask-type:luminance" maskUnits="userSpaceOnUse" x="129" y="251" width="50" height="48">
<path d="M178.152 251H129V299H178.152V251Z" fill="white"/>
</mask>
<g mask="url(#mask0_262_11544)">
<path d="M178.148 251H128.996V299H178.148V251Z" fill="#FF8F39"/>
<path d="M201.957 305.255C201.957 295.962 196.766 287.791 188.901 283.032C189.159 281.405 189.297 279.736 189.297 278.037C189.301 259.595 173.434 244.64 153.869 244.64C134.304 244.64 118.437 259.595 118.437 278.041C118.437 279.773 118.579 281.476 118.848 283.141C111.084 287.907 105.969 296.033 105.969 305.255C105.969 318.47 116.471 329.431 130.226 331.497C136.497 332.87 144.78 333.71 153.865 333.71C162.951 333.71 170.895 332.907 177.12 331.58C191.159 329.738 201.953 318.657 201.953 305.258L201.957 305.255Z" fill="#FF944E"/>
<path d="M142.152 258.192C142.152 258.192 144.883 266.971 153.761 263.03C153.761 263.03 157.539 261.432 155.865 257.071C154.191 252.706 148.581 256.381 151.633 261.275C154.686 266.168 166.022 267.811 167.926 259.295" stroke="#CC7500" stroke-width="1.10156" stroke-linecap="round" stroke-linejoin="round"/>
<path d="M145.532 284.439C150.251 284.439 154.076 280.715 154.076 276.121C154.076 271.528 150.251 267.804 145.532 267.804C140.814 267.804 136.988 271.528 136.988 276.121C136.988 280.715 140.814 284.439 145.532 284.439Z" fill="white"/>
<path d="M162.093 284.439C166.812 284.439 170.637 280.715 170.637 276.121C170.637 271.528 166.812 267.804 162.093 267.804C157.374 267.804 153.549 271.528 153.549 276.121C153.549 280.715 157.374 284.439 162.093 284.439Z" fill="white"/>
<path d="M142.103 280.768C144.928 280.768 147.218 278.538 147.218 275.788C147.218 273.037 144.928 270.808 142.103 270.808C139.278 270.808 136.988 273.037 136.988 275.788C136.988 278.538 139.278 280.768 142.103 280.768Z" fill="#002322"/>
<path d="M158.664 280.768C161.489 280.768 163.779 278.538 163.779 275.788C163.779 273.037 161.489 270.808 158.664 270.808C155.839 270.808 153.549 273.037 153.549 275.788C153.549 278.538 155.839 280.768 158.664 280.768Z" fill="#002322"/>
<path d="M152.102 291.35C154.091 291.35 155.704 289.579 155.704 287.394C155.704 285.209 154.091 283.438 152.102 283.438C150.113 283.438 148.5 285.209 148.5 287.394C148.5 289.579 150.113 291.35 152.102 291.35Z" fill="#002322"/>
<path d="M160.129 291.349C159.057 290.869 158.312 289.812 158.312 288.586C158.312 287.359 159.065 286.291 160.148 285.814" stroke="#CC7500" stroke-width="1.10156" stroke-linecap="round" stroke-linejoin="round"/>
<path d="M145.013 291.349C146.085 290.869 146.83 289.812 146.83 288.586C146.83 287.359 146.077 286.291 144.994 285.814" stroke="#CC7500" stroke-width="1.10156" stroke-linecap="round" stroke-linejoin="round"/>
</g>
</g>
<g clip-path="url(#clip2_262_11544)">
<path d="M391.189 530.438C391.663 528.392 391.95 526.279 391.95 524.097C391.95 508.88 379.617 496.553 364.391 496.553C356.44 496.553 349.301 499.935 344.276 505.312C337.374 494.321 325.142 487 311.202 487C289.632 487 272.156 504.467 272.156 526.025C272.156 527.868 272.291 529.694 272.545 531.469C260.584 534.97 251.838 545.994 251.838 559.081C251.838 574.975 264.729 587.859 280.632 587.859C280.902 587.859 281.173 587.826 281.444 587.826C281.715 587.826 281.968 587.859 282.239 587.859H385.708C386.181 587.859 386.621 587.826 387.095 587.792C387.552 587.809 388.025 587.859 388.482 587.859C404.385 587.859 417.276 574.975 417.276 559.081C417.276 544.1 405.806 531.791 391.172 530.438H391.189Z" fill="#FFD298"/>
<path d="M186.062 778.233C175.082 781.209 169.296 789.951 170.599 797.238C172.003 805.084 179.819 810.258 194.03 807.721C205.5 805.675 213.739 798.574 212.487 790.796L189.056 794.972L186.079 778.233H186.062Z" fill="#022222"/>
<path d="M212.454 790.643C212.454 790.643 212.42 790.542 212.42 790.491L212.471 790.762C212.471 790.762 212.471 790.694 212.471 790.643H212.454Z" fill="#022222"/>
<path d="M212.419 790.491L204.704 747.206L181.273 751.382L186.061 778.233C186.907 778.013 187.77 777.81 188.666 777.641C202.742 775.189 210.947 782.697 212.436 790.491H212.419Z" fill="#022222"/>
<path d="M212.42 790.491C210.948 782.697 202.726 775.206 188.65 777.641C187.754 777.793 186.891 777.996 186.045 778.233L189.022 794.972L212.453 790.796C212.453 790.796 212.453 790.762 212.453 790.745L212.403 790.474L212.42 790.491Z" fill="#022222"/>
<path d="M240.267 772.822C229.287 775.798 223.501 784.539 224.804 791.827C226.208 799.673 234.024 804.847 248.235 802.31C259.705 800.264 267.944 793.163 266.692 785.385L243.261 789.561L240.284 772.822H240.267Z" fill="#022222"/>
<path d="M266.659 785.232C266.659 785.232 266.625 785.131 266.625 785.08L266.676 785.351C266.676 785.351 266.676 785.283 266.676 785.232H266.659Z" fill="#022222"/>
<path d="M266.624 785.08L258.91 741.794L235.479 745.971L240.266 772.822C241.112 772.602 241.975 772.399 242.872 772.23C256.947 769.778 265.152 777.285 266.641 785.08H266.624Z" fill="#022222"/>
<path d="M266.625 785.08C265.153 777.285 256.931 769.795 242.855 772.23C241.959 772.382 241.096 772.585 240.25 772.822L243.228 789.561L266.659 785.385C266.659 785.385 266.659 785.351 266.659 785.334L266.608 785.063L266.625 785.08Z" fill="#022222"/>
<path d="M339.572 690.004C339.572 665.486 326.19 643.911 305.906 631.365C306.566 627.07 306.921 622.674 306.921 618.193C306.921 569.514 266.014 530.066 215.566 530.066C165.117 530.066 124.21 569.53 124.21 618.193C124.21 622.775 124.565 627.256 125.276 631.652C105.262 644.249 92.0664 665.672 92.0664 690.021C92.0664 724.903 119.135 753.817 154.611 759.261C170.784 762.88 192.135 765.095 215.566 765.095C238.997 765.095 259.484 762.964 275.522 759.481C311.726 754.628 339.555 725.376 339.555 690.021L339.572 690.004Z" fill="#FF8F39"/>
<path d="M185.385 565.81C185.385 565.81 192.423 588.975 215.312 578.576C215.312 578.576 225.057 574.366 220.743 562.851C216.429 551.337 201.964 561.025 209.831 573.943C217.698 586.862 246.931 591.19 251.837 568.719" stroke="#CC7500" stroke-width="2" stroke-linecap="round" stroke-linejoin="round"/>
<path d="M258.816 676.201C268.591 675.362 275.737 665.631 274.777 654.466C273.817 643.301 265.116 634.93 255.341 635.769C245.566 636.609 238.421 646.34 239.38 657.505C240.34 668.67 249.042 677.04 258.816 676.201Z" fill="#022222"/>
<path d="M175.607 657.495C176.567 646.33 169.421 636.599 159.646 635.76C149.872 634.921 141.17 643.291 140.21 654.456C139.251 665.621 146.396 675.352 156.171 676.191C165.946 677.031 174.647 668.66 175.607 657.495Z" fill="#022222"/>
<path d="M194.097 635.068C206.262 635.068 216.124 625.242 216.124 613.121C216.124 600.999 206.262 591.173 194.097 591.173C181.932 591.173 172.07 600.999 172.07 613.121C172.07 625.242 181.932 635.068 194.097 635.068Z" fill="white"/>
<path d="M236.798 635.068C248.963 635.068 258.825 625.242 258.825 613.121C258.825 600.999 248.963 591.173 236.798 591.173C224.633 591.173 214.771 600.999 214.771 613.121C214.771 625.242 224.633 635.068 236.798 635.068Z" fill="white"/>
<path d="M185.25 625.379C192.538 625.379 198.446 619.497 198.446 612.241C198.446 604.986 192.538 599.104 185.25 599.104C177.963 599.104 172.055 604.986 172.055 612.241C172.055 619.497 177.963 625.379 185.25 625.379Z" fill="#022222"/>
<path d="M227.95 625.379C235.238 625.379 241.146 619.497 241.146 612.241C241.146 604.986 235.238 599.104 227.95 599.104C220.662 599.104 214.754 604.986 214.754 612.241C214.754 619.497 220.662 625.379 227.95 625.379Z" fill="#022222"/>
<path d="M211.032 653.295C216.161 653.295 220.32 648.624 220.32 642.863C220.32 637.101 216.161 632.43 211.032 632.43C205.902 632.43 201.744 637.101 201.744 642.863C201.744 648.624 205.902 653.295 211.032 653.295Z" fill="#022222"/>
<path d="M231.723 653.312C228.966 652.044 227.037 649.254 227.037 646.025C227.037 642.795 228.983 639.971 231.774 638.72" stroke="#CC7500" stroke-width="2" stroke-linecap="round" stroke-linejoin="round"/>
<path d="M192.762 653.312C195.519 652.044 197.448 649.254 197.448 646.025C197.448 642.795 195.502 639.971 192.711 638.72" stroke="#CC7500" stroke-width="2" stroke-linecap="round" stroke-linejoin="round"/>
<path d="M204.688 656.407C195.384 682.463 163.646 685.675 156.287 686.064C152.311 681.347 146.356 678.337 139.708 678.337C136.239 678.337 132.974 679.166 130.081 680.62C125.429 677.475 119.44 675.581 112.91 675.581C104.569 675.581 97.1257 678.658 92.2027 683.494C87.1443 683.156 81.6629 684.12 76.3677 686.555C66.5047 691.103 60.0591 699.507 58.9594 707.893C49.9254 710.514 43.3105 718.816 43.3105 728.708C43.3105 740.679 53.0213 750.384 64.999 750.384C66.5893 750.384 68.1457 750.198 69.6514 749.877C73.6101 754.054 79.193 756.691 85.4018 756.691C93.7929 756.691 101.051 751.923 104.654 744.974C111.455 747.189 119.914 746.479 127.679 742.387C136.764 737.602 142.55 729.435 143.548 721.369C152.413 719.797 159.417 712.831 161.041 703.97C205.788 690.275 204.722 656.441 204.722 656.441L204.688 656.407Z" fill="#FFD298"/>
<path d="M220.319 861.017C255.619 861.017 284.234 854.188 284.234 845.765C284.234 837.342 255.619 830.514 220.319 830.514C185.02 830.514 156.404 837.342 156.404 845.765C156.404 854.188 185.02 861.017 220.319 861.017Z" fill="#CECECE"/>
<path d="M54.0533 569.429C54.5777 567.84 54.8653 566.132 54.8653 564.373C54.8653 555.429 47.6076 548.158 38.6413 548.158C33.8536 548.158 29.5565 550.255 26.579 553.552C22.8401 546.603 15.4979 541.868 7.03902 541.868C-5.20938 541.868 -15.1231 551.793 -15.1231 564.018C-15.1231 565.777 -14.9032 567.485 -14.5141 569.125C-21.6872 570.799 -27.0332 577.224 -27.0332 584.9C-27.0332 593.845 -19.7755 601.116 -10.8091 601.116C-10.1324 601.116 -9.47264 601.065 -8.81285 600.98C-6.76581 606.442 -1.50441 610.348 4.68746 610.348C8.29093 610.348 11.5899 609.012 14.1106 606.831C17.7987 611.886 23.7368 615.184 30.47 615.184C39.4026 615.184 46.9479 609.401 49.6547 601.386C50.8558 601.674 52.0908 601.826 53.3766 601.826C62.326 601.826 69.6006 594.572 69.6006 585.611C69.6006 576.649 62.6982 569.784 54.0533 569.429ZM26.5282 575.093C26.4267 575.11 26.3083 575.144 26.2068 575.161C26.2575 575.077 26.3083 574.992 26.359 574.907C26.4098 574.975 26.4774 575.026 26.5282 575.093Z" fill="#FFD298"/>
<path d="M437.238 750.029C437.069 750.029 436.9 750.046 436.73 750.046C436.849 749.099 436.917 748.153 436.917 747.172C436.917 733.78 426.055 722.942 412.674 722.942C400.29 722.942 390.105 732.225 388.634 744.196C386.434 743.469 384.1 743.063 381.663 743.063C369.381 743.063 359.434 753.005 359.434 765.281C359.434 777.556 369.381 787.499 381.663 787.499C381.765 787.499 381.866 787.499 381.968 787.499C382.222 787.499 382.459 787.533 382.712 787.533H435.174C435.529 787.533 435.868 787.499 436.206 787.482C436.561 787.499 436.9 787.533 437.255 787.533C447.626 787.533 456.017 779.129 456.017 768.781C456.017 758.433 447.609 750.029 437.255 750.029H437.238Z" fill="#FFD298"/>
</g>
</g>
<defs>
<clipPath id="clip0_262_11544">
<rect width="430" height="932" fill="white"/>
</clipPath>
<clipPath id="clip1_262_11544">
<rect width="48" height="48" fill="white" transform="translate(129 251)"/>
</clipPath>
<clipPath id="clip2_262_11544">
<rect width="483" height="374" fill="white" transform="translate(-27 487)"/>
</clipPath>
</defs>
</svg>
